<svg width="719" height="680" viewBox="0 0 719 680" fill="none" xmlns="http://www.w3.org/2000/svg">
<path d="M87.797 94.9663C87.797 94.9663 348.769 -105.208 629.239 94.9663C629.239 94.9663 724.792 533.05 357.605 673.43C357.605 673.43 13.7928 571.159 87.797 94.9663Z" fill="white"/>
<path d="M87.797 94.9663C87.797 94.9663 348.769 -105.208 629.239 94.9663C629.239 94.9663 724.792 533.05 357.605 673.43C357.605 673.43 13.7928 571.159 87.797 94.9663Z" stroke="white" stroke-width="12" stroke-miterlimit="10"/>
<path d="M712.339 169.057H6V418.649H712.339V169.057Z" fill="white"/>
<path d="M712.339 169.057H6V418.649H712.339V169.057Z" stroke="white" stroke-width="12" stroke-miterlimit="10"/>
<path d="M87.797 94.9663C87.797 94.9663 348.769 -105.208 629.239 94.9663C629.239 94.9663 724.792 533.05 357.605 673.43C357.605 673.43 13.7928 571.159 87.797 94.9663Z" fill="#0D0D0D"/>
<path d="M121.574 119.676C121.574 119.676 346.196 -44.1067 594.194 118.369C594.194 118.369 672.113 504.46 357.753 630.432C357.753 630.432 63.1161 536.97 121.537 119.676" fill="white"/>
<path d="M494.949 169.318C494.203 169.318 493.42 169.019 492.861 168.459C491.668 167.302 491.631 165.436 492.786 164.242C493.122 163.906 500.727 156.142 512.434 160.099C514 160.621 514.857 162.338 514.335 163.906C513.813 165.473 512.098 166.332 510.532 165.809C502.517 163.122 497.335 168.235 497.111 168.422C496.515 169.019 495.732 169.318 494.949 169.318Z" fill="#0D0D0D"/>
<path d="M551.357 170.288C550.574 170.288 549.791 169.99 549.194 169.392C548.933 169.131 543.788 164.055 535.773 166.78C534.207 167.302 532.492 166.481 531.97 164.876C531.448 163.309 532.268 161.592 533.871 161.069C545.578 157.113 553.183 164.876 553.519 165.212C554.675 166.406 554.637 168.31 553.444 169.467C552.848 170.027 552.102 170.288 551.357 170.288Z" fill="#0D0D0D"/>
<path d="M357.492 633.567C357.492 633.567 502.108 589.673 571.452 415.477H145.21C145.21 415.477 186.742 568.36 357.492 633.567Z" fill="#0D0D0D"/>
<path d="M190.06 495.949L210.565 418.649H179.994L169.033 461.722L190.06 495.949Z" fill="white"/>
<path d="M252.134 418.649H282.705L245.497 559.925L221.115 535.29L252.134 418.649Z" fill="white"/>
<path d="M324.272 418.649H355.44L306.228 605.498L278.64 587.209L324.272 418.649Z" fill="white"/>
<path d="M397.569 418.649H426.985L372.814 624.049L357.79 630.432L341.982 624.161L397.569 418.649Z" fill="white"/>
<path d="M469.113 418.649H498.529L459.606 571.085L422.213 597.847L469.113 418.649Z" fill="white"/>
<path d="M541.813 418.649H568.544C568.544 418.649 545.504 477.026 519.481 508.267L541.813 418.649Z" fill="white"/>
<path d="M712.339 169.057H6V418.649H712.339V169.057Z" fill="#0D0D0D"/>
<path d="M61.2139 272.783V318.021H43.8779V206.344H72.5476C83.2101 206.344 91.0393 208.733 95.9978 213.548C101.888 219.222 104.834 227.881 104.834 239.564C104.834 251.247 101.888 259.906 95.9978 265.579C92.8288 268.677 89.0634 270.693 84.6268 271.626C80.9732 272.41 76.9468 272.783 72.5476 272.783H61.1766H61.2139ZM61.2139 256.808H68.7448C75.12 256.808 79.5938 255.8 82.129 253.785C85.4098 251.321 87.0502 246.581 87.0502 239.564C87.0502 232.547 85.4098 227.769 82.129 225.343C79.5565 223.327 75.12 222.32 68.7448 222.32H61.2139V256.845V256.808Z" fill="white"/>
<path d="M158.296 206.344H175.632V282.04C175.632 291.035 174.849 297.716 173.246 302.083C168.996 313.803 159.974 319.663 146.105 319.663C135.815 319.663 128.135 316.304 123.065 309.586C120.12 305.704 118.293 301.374 117.585 296.559C116.913 292.267 116.615 287.414 116.615 282.002V206.307H133.951V284.764C133.951 291.072 134.771 295.626 136.412 298.425C138.388 301.747 141.631 303.427 146.142 303.427C150.653 303.427 153.897 301.747 155.873 298.425C157.513 295.701 158.333 291.147 158.333 284.764V206.307L158.296 206.344Z" fill="white"/>
<path d="M192.632 318.021V206.344H218.468C228.273 206.344 236.028 208.584 241.695 213.063C248.032 218.065 251.164 225.306 251.164 234.749C251.164 242.102 249.039 248.037 244.789 252.59C242.067 255.576 238.041 257.89 232.784 259.458C238.6 261.138 242.999 263.303 245.945 265.915C251.164 270.618 253.774 277.411 253.774 286.369C253.774 296.298 250.679 304.173 244.453 309.996C238.749 315.334 230.808 318.021 220.668 318.021H192.632ZM209.968 251.769H216.268C221.674 251.769 225.924 250.276 229.019 247.365C232.076 244.491 233.604 240.721 233.604 236.055C233.604 231.8 232.188 228.404 229.354 225.828C226.782 223.477 222.532 222.32 216.604 222.32H209.968V251.769ZM209.968 302.083H218.617C224.396 302.083 228.683 300.628 231.517 297.754C234.387 294.805 235.841 291.035 235.841 286.369C235.841 281.144 234.164 276.777 230.846 273.268C227.416 269.573 222.532 267.707 216.231 267.707H209.931V302.083H209.968Z" fill="white"/>
<path d="M286.209 206.344V302.083H320.508V318.021H268.873V206.344H286.209Z" fill="white"/>
<path d="M348.581 206.344H331.245V318.021H348.581V206.344Z" fill="white"/>
<path d="M424.785 242.662H407.561V240.385C407.561 227.396 403.199 220.901 394.475 220.901C389.74 220.901 386.347 222.73 384.26 226.388C382.992 228.665 382.246 231.128 381.985 233.741C381.762 236.242 381.65 239.153 381.65 242.4V279.539C381.65 287.34 382.284 292.901 383.514 296.223C385.378 301.038 389.106 303.427 394.698 303.427C403.571 303.427 408.008 296.111 408.008 281.517V278.755H425.232C425.307 280.659 425.307 282.04 425.307 282.935C425.307 293.722 423.144 302.307 418.782 308.615C413.675 315.968 405.622 319.663 394.661 319.663C383.067 319.663 374.715 315.52 369.645 307.234C366.961 302.904 365.395 298.164 364.91 292.901C364.463 288.534 364.239 283.309 364.239 277.187V246.021C364.239 235.346 364.91 227.918 366.29 223.775C368.676 216.348 373.038 211.085 379.376 207.987C383.738 205.822 388.733 204.702 394.4 204.702C403.87 204.702 411.252 207.614 416.546 213.436C422.063 219.558 424.785 228.068 424.785 239.041C424.785 239.9 424.785 241.131 424.71 242.624" fill="white"/>
<path d="M465.422 318.021V206.344H491.258C501.063 206.344 508.818 208.584 514.485 213.063C520.823 218.065 523.954 225.306 523.954 234.749C523.954 242.102 521.829 248.037 517.579 252.59C514.857 255.576 510.868 257.89 505.574 259.458C511.39 261.138 515.789 263.303 518.735 265.915C523.954 270.618 526.564 277.411 526.564 286.369C526.564 296.298 523.47 304.173 517.243 309.996C511.539 315.334 503.598 318.021 493.458 318.021H465.422ZM482.758 251.769H489.059C494.464 251.769 498.714 250.276 501.809 247.365C504.866 244.491 506.395 240.721 506.395 236.055C506.395 231.8 504.978 228.404 502.144 225.828C499.572 223.477 495.322 222.32 489.394 222.32H482.758V251.769ZM482.758 302.083H491.407C497.186 302.083 501.473 300.628 504.307 297.754C507.177 294.805 508.631 291.035 508.631 286.369C508.631 281.144 506.954 276.777 503.636 273.268C500.206 269.573 495.322 267.707 489.021 267.707H482.721V302.083H482.758Z" fill="white"/>
<path d="M582.115 293.722H558.329L553.856 318.021H536.93L558.329 206.344H582.041L604.596 318.021H586.85L582.115 293.722ZM579.17 277.785L569.999 227.806L561.088 277.785H579.133H579.17Z" fill="white"/>
<path d="M633.675 272.223V318.058H616.339V206.382H643.48C653.061 206.382 660.443 208.621 665.551 213.1C672.187 218.885 675.505 227.321 675.505 238.369C675.505 252.553 670.472 262.22 660.48 267.408L676.884 318.058H658.728L643.927 272.223H633.638H633.675ZM633.675 256.248H639.975C644.71 256.248 648.103 255.8 650.116 254.941C655.186 252.777 657.722 247.514 657.722 239.228C657.722 233.106 656.305 228.665 653.471 225.903C651.831 224.223 649.855 223.178 647.506 222.805C645.456 222.469 642.921 222.319 639.975 222.319H633.675V256.285V256.248Z" fill="white"/>
<path d="M83.4334 369.641L73.852 375.874C73.6283 376.024 73.3301 375.8 73.4046 375.538L76.5363 364.714C76.5363 364.714 76.5363 364.49 76.4244 364.416L67.4023 357.436C67.1786 357.249 67.2904 356.913 67.5887 356.913L79.0715 356.465C79.0715 356.465 79.2951 356.391 79.3324 356.279L83.3216 345.716C83.4334 345.454 83.8062 345.454 83.8808 345.716L87.8699 356.279C87.8699 356.279 88.0191 356.465 88.1309 356.465L99.6137 356.913C99.9119 356.913 100.024 357.287 99.8001 357.436L90.7779 364.416C90.7779 364.416 90.6288 364.602 90.6661 364.714L93.7977 375.538C93.8723 375.8 93.574 376.024 93.3503 375.874L83.7689 369.641C83.7689 369.641 83.5453 369.566 83.4334 369.641Z" fill="white"/>
<path d="M136.673 369.641L127.091 375.874C126.868 376.024 126.569 375.8 126.644 375.538L129.776 364.714C129.776 364.714 129.776 364.49 129.664 364.416L120.642 357.436C120.418 357.249 120.53 356.913 120.828 356.913L132.311 356.465C132.311 356.465 132.534 356.391 132.572 356.279L136.561 345.716C136.673 345.454 137.045 345.454 137.12 345.716L141.109 356.279C141.109 356.279 141.258 356.465 141.37 356.465L152.853 356.913C153.151 356.913 153.263 357.287 153.039 357.436L144.017 364.416C144.017 364.416 143.868 364.602 143.905 364.714L147.037 375.538C147.112 375.8 146.813 376.024 146.59 375.874L137.008 369.641C137.008 369.641 136.785 369.566 136.673 369.641Z" fill="white"/>
<path d="M189.649 369.641L180.068 375.874C179.844 376.024 179.546 375.8 179.62 375.538L182.752 364.714C182.752 364.714 182.752 364.49 182.64 364.416L173.618 357.436C173.394 357.249 173.506 356.913 173.804 356.913L185.287 356.465C185.287 356.465 185.511 356.391 185.548 356.279L189.537 345.716C189.649 345.454 190.022 345.454 190.097 345.716L194.086 356.279C194.086 356.279 194.235 356.465 194.347 356.465L205.829 356.913C206.128 356.913 206.24 357.287 206.016 357.436L196.994 364.416C196.994 364.416 196.845 364.602 196.882 364.714L200.014 375.538C200.088 375.8 199.79 376.024 199.566 375.874L189.985 369.641C189.985 369.641 189.761 369.566 189.649 369.641Z" fill="white"/>
<path d="M527.944 369.455L518.363 375.688C518.139 375.837 517.841 375.613 517.915 375.352L521.047 364.528C521.047 364.528 521.047 364.304 520.935 364.229L511.913 357.25C511.689 357.063 511.801 356.727 512.099 356.727L523.582 356.279C523.582 356.279 523.806 356.204 523.843 356.092L527.832 345.529C527.944 345.268 528.317 345.268 528.392 345.529L532.381 356.092C532.381 356.092 532.53 356.279 532.642 356.279L544.124 356.727C544.423 356.727 544.535 357.1 544.311 357.25L535.289 364.229C535.289 364.229 535.14 364.416 535.177 364.528L538.308 375.352C538.383 375.613 538.085 375.837 537.861 375.688L528.28 369.455C528.28 369.455 528.056 369.38 527.944 369.455Z" fill="white"/>
<path d="M581.182 369.455L571.601 375.688C571.377 375.837 571.079 375.613 571.154 375.352L574.285 364.528C574.285 364.528 574.285 364.304 574.173 364.229L565.151 357.25C564.928 357.063 565.039 356.727 565.338 356.727L576.82 356.279C576.82 356.279 577.044 356.204 577.081 356.092L581.071 345.529C581.182 345.268 581.555 345.268 581.63 345.529L585.619 356.092C585.619 356.092 585.768 356.279 585.88 356.279L597.363 356.727C597.661 356.727 597.773 357.1 597.549 357.25L588.527 364.229C588.527 364.229 588.378 364.416 588.415 364.528L591.547 375.352C591.621 375.613 591.323 375.837 591.099 375.688L581.518 369.455C581.518 369.455 581.294 369.38 581.182 369.455Z" fill="white"/>
<path d="M634.16 369.455L624.579 375.688C624.355 375.837 624.057 375.613 624.131 375.352L627.263 364.528C627.263 364.528 627.263 364.304 627.151 364.229L618.129 357.25C617.905 357.063 618.017 356.727 618.315 356.727L629.798 356.279C629.798 356.279 630.022 356.204 630.059 356.092L634.048 345.529C634.16 345.268 634.533 345.268 634.607 345.529L638.596 356.092C638.596 356.092 638.746 356.279 638.857 356.279L650.34 356.727C650.638 356.727 650.75 357.1 650.527 357.25L641.504 364.229C641.504 364.229 641.355 364.416 641.393 364.528L644.524 375.352C644.599 375.613 644.301 375.837 644.077 375.688L634.496 369.455C634.496 369.455 634.272 369.38 634.16 369.455Z" fill="white"/>
<path d="M232.373 323.732C229.801 331.495 227.378 339.296 224.954 347.097C220.667 361.019 214.739 375.912 213.211 390.431C212.577 396.627 213.136 403.383 215.708 409.131C220.63 420.18 234.498 420.777 244.676 418.239C258.247 414.879 270.55 404.204 279.013 393.38C282.219 389.274 276.701 388.826 273.831 389.61C260.857 393.194 250.38 402.338 237.444 405.809C235.58 406.295 233.604 406.668 231.702 406.332C229.801 405.996 227.937 404.839 227.191 403.047C225.327 398.494 229.465 388.379 230.77 383.825C233.716 373.486 236.996 362.96 241.135 353.032C241.135 353.032 248.628 335.116 249.225 326.755C249.225 326.755 250.679 320.671 244.043 319.253C244.043 319.253 234.424 317.386 232.373 323.732Z" fill="white"/>
<path d="M300.303 331.122C300.713 339.483 301.235 347.806 301.832 356.129C302.279 362.587 302.801 369.081 303.435 375.539C303.882 379.906 304.665 384.235 305.411 388.528C306.045 392.223 307.089 395.806 306.828 399.576C306.828 399.949 306.753 400.322 306.567 400.621C306.38 400.92 306.082 401.144 305.784 401.367C304.031 402.674 301.235 404.129 300.303 406.257C299.185 408.758 303.808 413.05 305.821 413.498C307.648 413.909 309.549 413.274 311.264 412.528C318.571 409.43 325.058 404.54 330.166 398.456C330.166 398.456 334.938 395.209 328.861 389.797C327.668 388.714 322.039 394.574 321.218 395.283C320.995 395.47 320.771 395.657 320.51 395.731C319.876 395.843 319.392 395.171 319.093 394.574C317.155 390.357 317.341 385.654 317.006 381.137C317.006 381.137 314.806 327.762 314.769 327.389C314.619 323.283 321.144 324.291 323.903 324.067C330.278 323.582 342.133 323.059 345.936 316.976C347.875 313.878 350.41 307.42 344.594 307.234C328.078 306.674 311.637 308.764 295.792 313.355C294.487 313.728 293.145 314.139 291.878 314.549C289.082 315.445 286.211 316.565 284.198 318.692C279.91 323.209 283.042 336.198 290.759 333.809C293.406 332.988 295.867 330.748 297.917 328.92C297.917 328.92 300.08 327.016 300.303 331.084" fill="white"/>
<path d="M363.084 309.66C363.308 329.517 363.867 349.374 364.687 369.231C365.246 382.22 366.29 395.097 366.29 408.123C366.29 408.609 366.29 409.094 366.402 409.542C367.111 412.789 371.323 415.253 374.455 414.618C379.003 413.685 381.427 409.43 382.471 405.249C384.484 397.15 384.186 388.677 385.975 380.54C387.839 372.179 389.741 363.893 392.686 355.831C395.631 348.179 398.688 340.602 401.82 333.063C405.212 324.926 408.456 316.677 412.482 308.839C414.57 304.733 416.658 300.627 419.156 296.783C420.461 294.767 421.84 292.789 423.443 291.035C424.785 289.579 426.799 288.235 426.724 286.033C426.575 281.666 423.22 282.935 421.02 284.839C417.031 288.31 413.601 292.826 410.32 296.895C402.193 307.01 394.96 317.909 389.07 329.442C384.036 339.221 380.532 349.71 376.953 360.086C373.598 369.828 373.225 355.644 373.225 352.845C373.448 338.997 373.56 325.15 373.598 311.302C373.598 310.071 373.598 308.802 373.187 307.644C371.1 302.008 362.972 304.061 363.084 309.735" fill="white"/>
<path d="M446.894 292.005C446.708 292.528 446.633 293.125 446.708 293.871C447.006 296.26 447.379 299.022 444.769 300.142C443.464 300.702 437.574 300.328 437.238 301.374C437.127 301.747 437.238 302.157 437.35 302.568C438.096 304.882 439.587 306.077 440.929 307.905C442.383 309.884 441.6 311.153 441.041 313.691C439.885 319.066 438.804 324.478 437.798 329.89C435.747 341.087 433.958 352.36 432.727 363.669C431.609 374.045 430.565 385.094 433.249 395.321C433.808 397.486 434.591 399.65 436.12 401.293C442.048 407.601 453.419 404.465 459.906 401.031C466.505 397.56 472.06 392.484 477.204 387.147C481.343 382.891 488.724 376.957 490.29 371.022C491.26 367.29 484.996 369.38 483.617 370.164C475.378 374.829 467.399 380.017 459.757 385.616C456.96 387.669 448.684 395.955 445.813 389.573C445.179 388.154 445.291 386.549 445.403 385.019C445.813 379.794 446.261 374.531 447.081 369.342C447.64 365.647 447.528 361.654 449.206 358.22C450.697 355.122 453.419 354.898 456.401 354.002C461.807 352.434 467.138 350.531 472.358 348.403C474.035 347.731 487.308 343.402 485.257 341.013C484.959 340.677 484.586 340.528 484.176 340.378C479.74 338.96 475.117 340.49 470.829 341.647C465.535 343.103 460.95 345.38 455.954 347.433C455.208 347.731 454.164 347.731 453.68 347.097C453.307 346.649 453.307 345.977 453.344 345.38C453.866 335.227 456.476 324.814 459.533 315.147C461.844 307.868 466.094 304.621 472.544 301.299C477.13 298.947 481.827 296.783 486.562 294.73C490.178 293.162 495.323 292.005 498.082 289.056C500.245 286.742 499.387 284.353 496.516 283.607C494.279 283.01 492.303 283.084 489.917 283.458C480.485 284.988 471.463 288.832 462.515 292.005C461.024 292.528 459.123 292.975 458.004 291.818C457.594 291.37 457.371 290.773 456.886 290.363C456.513 290.064 456.028 289.952 455.581 289.877C453.12 289.43 447.976 288.832 446.783 291.893" fill="white"/>
<path d="M124.555 169.131C124.107 146.064 133.018 124.117 148.341 110.456C162.247 98.0644 180.552 91.7192 199.938 92.6523C218.244 93.5108 236.288 100.565 250.753 112.547L246.913 117.175C222.494 96.982 181.037 89.3677 152.292 114.973C138.237 127.477 130.11 147.707 130.52 169.019L124.518 169.131H124.555Z" fill="#0D0D0D"/>
<path d="M587.893 169.169C586.663 141.175 571.75 116.727 549.866 106.836C517.058 92.0177 484.585 112.92 472.133 122.587L468.442 117.847C481.752 107.508 516.536 85.2245 552.326 101.386C576.261 112.211 592.591 138.711 593.895 168.945L587.893 169.206V169.169Z" fill="#0D0D0D"/>
<path d="M430.118 77.4983H424.115V169.057H430.118V77.4983Z" fill="#0D0D0D"/>
<path d="M293.517 77.4983H287.515V169.057H293.517V77.4983Z" fill="#0D0D0D"/>
<path d="M131.453 148.453L129.589 142.742C129.85 142.668 155.127 134.419 173.507 129.791C173.768 129.716 205.159 120.87 207.023 98.5496L213.025 99.0348C210.826 125.573 176.489 135.203 175.035 135.613C156.842 140.204 131.714 148.379 131.49 148.453" fill="#0D0D0D"/>
<path d="M167.43 174.245C166.796 174.245 166.162 174.058 165.603 173.647C164.261 172.64 164 170.773 165.006 169.43C166.609 167.302 204.488 117.734 245.87 116.615C247.548 116.615 248.927 117.884 248.965 119.563C249.002 121.206 247.697 122.587 246.057 122.661C207.582 123.707 170.188 172.602 169.816 173.088C169.219 173.871 168.324 174.282 167.43 174.282" fill="#0D0D0D"/>
<path d="M210.006 172.08C209.782 172.08 209.558 172.08 209.335 172.005C207.732 171.632 206.725 170.027 207.061 168.422C207.135 168.123 214.703 136.621 245.051 142.668C246.691 143.004 247.735 144.571 247.399 146.213C247.064 147.856 245.498 148.901 243.858 148.565C219.252 143.638 213.175 168.683 212.914 169.766C212.578 171.147 211.348 172.08 210.006 172.08Z" fill="#0D0D0D"/>
<path d="M230.624 173.498C230.549 173.088 222.123 131.619 164.374 105.417L166.835 99.9304C227.604 127.476 236.179 170.549 236.514 172.378L230.586 173.461L230.624 173.498Z" fill="#0D0D0D"/>
<path d="M545.391 169.056H539.389C539.389 129.604 566.008 114.226 567.126 113.591L570.072 118.854L568.618 116.241L570.109 118.854C569.102 119.414 545.428 133.262 545.428 169.056" fill="#0D0D0D"/>
<path d="M501.325 169.206C499.684 137.032 475.898 118.817 475.675 118.631L479.254 113.816C480.335 114.599 505.537 133.822 507.327 168.907L501.325 169.206Z" fill="#0D0D0D"/>
<path d="M259.925 125.872C259.217 125.872 258.546 125.461 258.247 124.752C257.874 123.819 258.285 122.774 259.217 122.4C262.982 120.833 266.747 119.34 270.513 117.959C271.445 117.623 272.489 118.108 272.824 119.041C273.16 119.974 272.675 121.019 271.743 121.355C268.052 122.736 264.287 124.192 260.596 125.722C260.372 125.834 260.149 125.872 259.925 125.872ZM459.158 124.677C458.897 124.677 458.636 124.64 458.413 124.528C454.871 122.886 451.18 121.318 447.415 119.825C446.483 119.452 446.035 118.407 446.408 117.473C446.781 116.54 447.825 116.092 448.757 116.466C452.597 117.959 456.362 119.601 459.941 121.243C460.836 121.654 461.246 122.736 460.799 123.632C460.501 124.304 459.829 124.677 459.158 124.677ZM282.555 117.511C281.809 117.511 281.101 117.026 280.84 116.242C280.542 115.309 281.064 114.264 281.996 113.965C285.873 112.696 289.788 111.539 293.628 110.456C294.597 110.195 295.566 110.755 295.864 111.725C296.125 112.696 295.566 113.666 294.597 113.965C290.794 115.01 286.917 116.167 283.114 117.436C282.928 117.511 282.741 117.511 282.555 117.511ZM436.715 115.831C436.715 115.831 436.342 115.831 436.156 115.757C432.39 114.525 428.55 113.368 424.71 112.323C423.741 112.061 423.182 111.091 423.443 110.12C423.703 109.15 424.71 108.59 425.642 108.851C429.557 109.896 433.471 111.091 437.274 112.323C438.206 112.621 438.728 113.666 438.43 114.599C438.169 115.346 437.46 115.831 436.715 115.831ZM305.781 111.054C304.961 111.054 304.216 110.494 304.029 109.635C303.806 108.665 304.402 107.694 305.371 107.47C309.323 106.575 313.312 105.716 317.264 105.007C318.234 104.82 319.203 105.455 319.352 106.463C319.538 107.433 318.905 108.403 317.898 108.553C314.021 109.262 310.069 110.083 306.154 111.016C306.005 111.016 305.893 111.054 305.744 111.054M413.451 109.561C413.451 109.561 413.19 109.561 413.078 109.523C409.201 108.702 405.249 107.956 401.334 107.321C400.365 107.172 399.694 106.239 399.843 105.268C399.992 104.298 400.924 103.626 401.894 103.775C405.883 104.41 409.909 105.156 413.824 106.015C414.793 106.239 415.427 107.172 415.203 108.142C415.017 109.001 414.271 109.561 413.451 109.561Z" fill="#0D0D0D"/>
<path d="M341.087 118.033C340.081 118.033 339.298 117.212 339.298 116.242V87.6134C339.298 86.6056 340.118 85.8218 341.087 85.8218C342.057 85.8218 342.877 86.6429 342.877 87.6134V116.242C342.877 117.249 342.057 118.033 341.087 118.033Z" fill="#0D0D0D"/>
<path d="M359.505 117.996C358.499 117.996 357.716 117.175 357.716 116.204V87.576C357.716 86.5683 358.536 85.7844 359.505 85.7844C360.475 85.7844 361.295 86.6056 361.295 87.576V116.204C361.295 117.212 360.475 117.996 359.505 117.996Z" fill="#0D0D0D"/>
<path d="M379.303 117.996C378.297 117.996 377.514 117.175 377.514 116.204V87.576C377.514 86.5683 378.334 85.7844 379.303 85.7844C380.273 85.7844 381.093 86.6056 381.093 87.576V116.204C381.093 117.212 380.273 117.996 379.303 117.996Z" fill="#0D0D0D"/>
<path d="M481.23 135.203C480.969 135.203 480.708 135.203 480.484 135.091C478.881 134.68 477.911 133.038 478.322 131.433C478.433 130.985 481.23 120.46 493.346 118.108C494.987 117.772 496.552 118.855 496.888 120.497C497.223 122.139 496.142 123.707 494.502 124.005C486.188 125.61 484.212 132.627 484.138 132.926C483.765 134.27 482.572 135.166 481.23 135.166" fill="#0D0D0D"/>
<path d="M564.294 135.24C562.952 135.24 561.722 134.344 561.386 133C561.274 132.665 559.298 125.685 551.022 124.08C549.381 123.781 548.337 122.176 548.636 120.534C548.934 118.892 550.537 117.846 552.177 118.145C564.294 120.497 567.09 131.022 567.202 131.47C567.612 133.075 566.643 134.717 565.04 135.128C564.779 135.203 564.555 135.203 564.294 135.203" fill="#0D0D0D"/>
<path d="M488.388 145.99C487.941 145.99 487.456 145.878 487.009 145.654C485.555 144.907 484.958 143.116 485.704 141.623C485.927 141.212 490.96 131.582 503.301 131.918C504.978 131.956 506.283 133.374 506.209 135.016C506.134 136.659 504.829 137.965 503.114 137.928C494.651 137.704 491.184 144.086 491.035 144.347C490.513 145.355 489.432 145.952 488.351 145.952" fill="#0D0D0D"/>
<path d="M556.726 144.982C555.645 144.982 554.601 144.385 554.041 143.34C553.892 143.004 550.351 136.696 541.962 136.92H541.888C540.285 136.92 538.942 135.613 538.905 134.008C538.868 132.366 540.173 130.948 541.813 130.91C554.153 130.575 559.186 140.204 559.41 140.615C560.156 142.108 559.559 143.9 558.105 144.646C557.658 144.87 557.21 144.982 556.763 144.982" fill="#0D0D0D"/>
<path d="M493.123 157.784C492.377 157.784 491.669 157.523 491.072 157.001C489.879 155.881 489.767 153.977 490.886 152.783C491.184 152.447 498.603 144.497 510.421 148.155C511.987 148.64 512.882 150.319 512.397 151.924C511.912 153.492 510.235 154.388 508.632 153.903C500.542 151.402 495.509 156.665 495.285 156.889C494.688 157.523 493.905 157.822 493.085 157.822" fill="#0D0D0D"/>
<path d="M551.619 157.784C550.798 157.784 550.015 157.448 549.419 156.814C549.195 156.552 544.125 151.364 536.072 153.828C534.506 154.313 532.791 153.417 532.307 151.849C531.822 150.244 532.717 148.565 534.283 148.08C546.101 144.422 553.52 152.372 553.818 152.708C554.937 153.94 554.862 155.843 553.632 156.963C553.073 157.486 552.327 157.747 551.619 157.747" fill="#0D0D0D"/>
<path d="M392.09 107.06C391.829 107.06 391.605 107.06 391.344 106.985C361.854 99.4456 328.748 106.911 328.413 106.985C326.81 107.358 325.169 106.351 324.796 104.746C324.424 103.141 325.43 101.498 327.033 101.125C328.45 100.789 361.854 93.2496 392.798 101.125C394.401 101.536 395.371 103.178 394.961 104.783C394.625 106.127 393.395 107.06 392.053 107.06" fill="#0D0D0D"/>
<path d="M456.848 173.461L452.859 168.982C462.44 160.397 472.469 146.699 473.214 135.464C474.184 120.72 460.389 105.567 456.139 101.274C418.448 63.1653 361.518 51.1466 311.113 70.7049C285.165 80.7827 262.871 98.2881 249.897 118.78C238.153 137.33 256.048 158.232 267.718 169.019L263.654 173.461C250.568 161.405 230.734 137.853 244.827 115.607C258.434 94.0704 281.81 75.6691 308.914 65.1435C361.518 44.7267 420.983 57.2679 460.389 97.0937C465.087 101.834 480.298 118.668 479.179 135.912C478.285 149.759 466.578 164.839 456.848 173.535" fill="#0D0D0D"/>
</svg>
